<svg xmlns="http://www.w3.org/2000/svg" xmlns:xlink="http://www.w3.org/1999/xlink" width="500" zoomAndPan="magnify" viewBox="0 0 375 374.999991" height="500" preserveAspectRatio="xMidYMid meet" version="1.0"><defs><g/><clipPath id="f58562bced"><rect x="0" width="203" y="0" height="314"/></clipPath><clipPath id="75669c12d0"><rect x="0" width="145" y="0" height="318"/></clipPath></defs><g transform="matrix(1, 0, 0, 1, 32, 46)"><g clip-path="url(#f58562bced)"><g fill="currentColor" fill-opacity="1"><g transform="translate(0.264402, 234.621842)"><g><path d="M 200.71875 -157.734375 L 200.71875 0 L 151.484375 0 L 151.484375 -78.640625 L 127.203125 0 L 84.875 0 L 60.59375 -78.640625 L 60.59375 0 L 11.140625 0 L 11.140625 -157.734375 L 71.734375 -157.734375 L 106.484375 -63.046875 L 140.359375 -157.734375 Z M 200.71875 -157.734375 "/></g></g></g></g></g><g transform="matrix(1, 0, 0, 1, 204, 29)"><g clip-path="url(#75669c12d0)"><g fill="#000000" fill-opacity="0"><g transform="translate(10.251406, 251.334513)"><g><path d="M 28.371094 -53.664062 C 28.371094 -53.664062 29.699219 -54.027344 32.351562 -54.753906 C 35.003906 -55.480469 38.472656 -56.445312 42.75 -57.644531 C 47.03125 -58.839844 51.628906 -60.148438 56.550781 -61.558594 C 61.472656 -62.972656 66.265625 -64.339844 70.929688 -65.667969 C 75.59375 -66.992188 79.597656 -68.128906 82.933594 -69.070312 L 78.570312 -65.859375 C 80.109375 -69.625 81.414062 -74.289062 82.484375 -79.851562 C 83.554688 -85.417969 84.132812 -91.75 84.21875 -98.855469 C 84.304688 -103.902344 83.789062 -107.820312 82.679688 -110.601562 C 81.566406 -113.382812 79.851562 -114.773438 77.542969 -114.773438 C 75.144531 -114.773438 72.75 -113.660156 70.351562 -111.433594 C 67.957031 -109.210938 65.6875 -105.9375 63.550781 -101.613281 C 61.410156 -97.292969 59.484375 -92.027344 57.773438 -85.824219 C 56.058594 -79.617188 54.691406 -72.535156 53.664062 -64.574219 C 51.953125 -51.308594 53.171875 -41.019531 57.324219 -33.699219 C 61.472656 -26.382812 68.984375 -22.722656 79.851562 -22.722656 C 84.21875 -22.722656 88.371094 -23.578125 92.304688 -25.292969 C 96.242188 -27.003906 99.945312 -29.613281 103.410156 -33.121094 C 106.878906 -36.632812 110.109375 -41.039062 113.105469 -46.347656 C 113.53125 -46.945312 113.917969 -47.351562 114.257812 -47.566406 C 114.601562 -47.78125 114.945312 -47.800781 115.285156 -47.628906 C 115.714844 -47.542969 115.972656 -47.246094 116.058594 -46.730469 C 116.140625 -46.21875 116.015625 -45.617188 115.671875 -44.933594 C 111.050781 -34.664062 105.464844 -25.996094 98.917969 -18.9375 C 92.371094 -11.875 84.859375 -6.527344 76.386719 -2.886719 C 67.914062 0.75 58.5 2.566406 48.144531 2.566406 C 38.214844 2.566406 29.785156 0.535156 22.851562 -3.53125 C 15.917969 -7.597656 10.890625 -13.585938 7.765625 -21.503906 C 4.644531 -29.421875 3.765625 -39.113281 5.136719 -50.582031 C 6.332031 -60.082031 8.945312 -68.984375 12.964844 -77.285156 C 16.988281 -85.585938 22.210938 -92.839844 28.628906 -99.046875 C 35.046875 -105.25 42.472656 -110.109375 50.902344 -113.617188 C 59.332031 -117.125 68.511719 -118.882812 78.441406 -118.882812 C 87.941406 -118.882812 95.6875 -117.234375 101.679688 -113.9375 C 107.667969 -110.644531 112.035156 -106.34375 114.773438 -101.035156 C 117.511719 -95.730469 118.710938 -90.039062 118.367188 -83.960938 C 118.28125 -82.847656 118.476562 -81.90625 118.945312 -81.136719 C 119.417969 -80.367188 120.464844 -79.8125 122.089844 -79.46875 C 122.777344 -79.382812 123.203125 -79.234375 123.375 -79.019531 C 123.546875 -78.804688 123.632812 -78.570312 123.632812 -78.3125 C 123.632812 -78.140625 123.546875 -77.925781 123.375 -77.671875 C 123.203125 -77.414062 122.777344 -77.199219 122.089844 -77.027344 C 120.378906 -76.601562 116.957031 -75.679688 111.820312 -74.269531 C 106.683594 -72.855469 100.628906 -71.144531 93.65625 -69.132812 C 86.679688 -67.121094 79.46875 -65.066406 72.023438 -62.972656 C 64.574219 -60.875 57.644531 -58.90625 51.222656 -57.066406 C 44.804688 -55.226562 39.605469 -53.726562 35.625 -52.570312 C 31.644531 -51.417969 29.65625 -50.839844 29.65625 -50.839844 Z M 28.371094 -53.664062 "/></g></g></g><g fill="#005f73" fill-opacity="0"><g transform="translate(10.251406, 251.334513)"><g><path d="M 25.828125 -62.949219 L 29.804688 -64.039062 L 40.175781 -66.921875 L 53.925781 -70.820312 L 68.285156 -74.925781 L 80.308594 -78.332031 L 88.636719 -61.3125 L 56.699219 -37.828125 L 69.65625 -69.503906 C 70.957031 -72.679688 72.082031 -76.734375 73.03125 -81.671875 C 73.992188 -86.671875 74.511719 -92.4375 74.589844 -98.96875 C 74.65625 -102.757812 74.371094 -105.445312 73.738281 -107.023438 L 73.757812 -107.027344 C 73.9375 -106.765625 74.179688 -106.507812 74.488281 -106.257812 C 75.402344 -105.515625 76.417969 -105.144531 77.542969 -105.144531 C 77.761719 -105.144531 77.914062 -105.164062 78.003906 -105.207031 C 77.726562 -105.078125 77.359375 -104.800781 76.90625 -104.378906 C 75.371094 -102.957031 73.796875 -100.609375 72.179688 -97.34375 C 70.308594 -93.570312 68.601562 -88.875 67.054688 -83.261719 C 65.460938 -77.492188 64.183594 -70.855469 63.214844 -63.34375 C 61.777344 -52.203125 62.605469 -43.90625 65.699219 -38.449219 C 66.789062 -36.523438 68.320312 -35.082031 70.285156 -34.125 C 72.710938 -32.941406 75.898438 -32.351562 79.851562 -32.351562 C 82.882812 -32.351562 85.753906 -32.941406 88.46875 -34.121094 C 91.269531 -35.339844 93.964844 -37.261719 96.5625 -39.890625 C 99.425781 -42.789062 102.144531 -46.519531 104.71875 -51.078125 L 104.972656 -51.523438 L 105.269531 -51.941406 C 106.4375 -53.578125 107.734375 -54.839844 109.15625 -55.730469 C 110.707031 -56.699219 112.378906 -57.238281 114.171875 -57.351562 C 116.070312 -57.46875 117.875 -57.101562 119.59375 -56.242188 L 115.285156 -47.628906 L 117.175781 -57.070312 C 119.5625 -56.59375 121.539062 -55.4375 123.109375 -53.605469 C 124.402344 -52.097656 125.21875 -50.335938 125.554688 -48.3125 C 125.984375 -45.742188 125.558594 -43.179688 124.285156 -40.628906 L 115.671875 -44.933594 L 124.453125 -40.980469 C 119.398438 -29.753906 113.242188 -20.222656 105.976562 -12.390625 C 98.507812 -4.332031 89.910156 1.785156 80.183594 5.960938 C 70.5 10.117188 59.820312 12.195312 48.144531 12.195312 C 36.472656 12.195312 26.417969 9.722656 17.980469 4.773438 C 9.136719 -0.410156 2.746094 -7.992188 -1.191406 -17.96875 C -4.910156 -27.394531 -5.988281 -38.644531 -4.425781 -51.722656 C -3.089844 -62.3125 -0.179688 -72.234375 4.300781 -81.484375 C 8.820312 -90.8125 14.699219 -98.972656 21.9375 -105.96875 C 29.230469 -113.019531 37.652344 -118.53125 47.203125 -122.507812 C 56.816406 -126.507812 67.230469 -128.511719 78.441406 -128.511719 C 89.589844 -128.511719 98.882812 -126.464844 106.320312 -122.375 C 114.023438 -118.136719 119.695312 -112.496094 123.328125 -105.453125 C 126.871094 -98.589844 128.421875 -91.246094 127.980469 -83.421875 C 128.046875 -84.246094 127.773438 -85.15625 127.160156 -86.15625 C 126.480469 -87.273438 125.625 -88.101562 124.597656 -88.648438 C 124.394531 -88.753906 124.210938 -88.835938 124.046875 -88.890625 L 124.074219 -88.890625 L 122.089844 -79.46875 L 123.285156 -89.023438 C 126.558594 -88.613281 129.09375 -87.285156 130.894531 -85.035156 C 132.472656 -83.0625 133.261719 -80.820312 133.261719 -78.3125 C 133.261719 -76.199219 132.636719 -74.203125 131.386719 -72.328125 C 129.839844 -70.007812 127.519531 -68.460938 124.425781 -67.6875 C 122.789062 -67.277344 119.4375 -66.378906 114.375 -64.984375 C 109.277344 -63.582031 103.257812 -61.882812 96.320312 -59.882812 L 74.660156 -53.710938 L 53.855469 -47.804688 L 38.292969 -43.320312 L 24.339844 -39.269531 L 14.933594 -59.960938 Z M 30.917969 -44.378906 L 28.371094 -53.664062 L 37.136719 -57.648438 L 38.421875 -54.824219 L 29.65625 -50.839844 L 26.972656 -60.085938 L 32.960938 -61.824219 L 48.59375 -66.328125 L 69.382812 -72.230469 L 90.988281 -78.386719 C 98 -80.40625 104.09375 -82.128906 109.265625 -83.554688 C 114.476562 -84.984375 117.972656 -85.925781 119.753906 -86.371094 C 119.414062 -86.285156 119.035156 -86.136719 118.621094 -85.929688 C 117.308594 -85.273438 116.222656 -84.300781 115.363281 -83.011719 C 114.457031 -81.652344 114.003906 -80.085938 114.003906 -78.3125 C 114.003906 -76.316406 114.621094 -74.546875 115.855469 -73.003906 C 116.921875 -71.671875 118.21875 -70.738281 119.746094 -70.203125 C 120.175781 -70.050781 120.558594 -69.957031 120.898438 -69.914062 L 120.5 -69.964844 L 120.105469 -70.046875 C 115.769531 -70.960938 112.644531 -72.984375 110.730469 -76.117188 C 109.175781 -78.65625 108.519531 -81.453125 108.753906 -84.503906 C 109 -88.832031 108.152344 -92.871094 106.21875 -96.621094 C 104.375 -100.1875 101.316406 -103.148438 97.039062 -105.5 C 92.492188 -108.003906 86.292969 -109.253906 78.441406 -109.253906 C 69.796875 -109.253906 61.851562 -107.746094 54.601562 -104.726562 C 47.292969 -101.6875 40.867188 -97.484375 35.320312 -92.125 C 29.722656 -86.710938 25.15625 -80.363281 21.632812 -73.085938 C 18.070312 -65.734375 15.757812 -57.851562 14.695312 -49.441406 C 13.519531 -39.582031 14.195312 -31.445312 16.722656 -25.039062 C 19.035156 -19.183594 22.699219 -14.78125 27.722656 -11.835938 C 33.152344 -8.652344 39.957031 -7.0625 48.144531 -7.0625 C 57.179688 -7.0625 65.328125 -8.621094 72.589844 -11.738281 C 79.8125 -14.835938 86.234375 -19.417969 91.859375 -25.484375 C 97.691406 -31.773438 102.699219 -39.574219 106.890625 -48.886719 L 106.972656 -49.0625 L 107.058594 -49.238281 C 106.46875 -48.058594 106.300781 -46.695312 106.558594 -45.148438 C 106.808594 -43.640625 107.453125 -42.28125 108.488281 -41.074219 C 109.804688 -39.542969 111.441406 -38.578125 113.398438 -38.1875 L 112.132812 -38.441406 L 110.980469 -39.015625 C 112.355469 -38.328125 113.820312 -38.035156 115.375 -38.132812 C 116.824219 -38.222656 118.15625 -38.644531 119.363281 -39.398438 C 120.101562 -39.863281 120.625 -40.3125 120.9375 -40.75 L 113.105469 -46.347656 L 121.488281 -41.613281 C 118.074219 -35.558594 114.328125 -30.472656 110.261719 -26.355469 C 105.925781 -21.964844 101.21875 -18.667969 96.144531 -16.460938 C 90.984375 -14.21875 85.554688 -13.09375 79.851562 -13.09375 C 72.9375 -13.09375 66.9375 -14.332031 61.851562 -16.8125 C 56.304688 -19.511719 52.003906 -23.558594 48.949219 -28.949219 C 43.738281 -38.128906 42.128906 -50.417969 44.113281 -65.808594 C 45.199219 -74.21875 46.65625 -81.742188 48.488281 -88.382812 C 50.363281 -95.179688 52.507812 -101.015625 54.917969 -105.886719 C 57.582031 -111.261719 60.542969 -115.464844 63.800781 -118.492188 C 68.042969 -122.429688 72.625 -124.402344 77.542969 -124.402344 C 80.976562 -124.402344 84.007812 -123.335938 86.632812 -121.203125 C 88.78125 -119.457031 90.441406 -117.113281 91.617188 -114.175781 C 93.210938 -110.195312 93.953125 -105.046875 93.847656 -98.738281 C 93.753906 -91.0625 93.117188 -84.160156 91.941406 -78.035156 C 90.75 -71.84375 89.265625 -66.570312 87.480469 -62.214844 L 78.570312 -65.859375 L 72.867188 -73.617188 L 77.230469 -76.828125 L 82.933594 -69.070312 L 85.558594 -59.804688 L 73.574219 -56.410156 L 59.179688 -52.296875 L 45.328125 -48.367188 L 34.898438 -45.46875 Z M 30.917969 -44.378906 "/></g></g></g><g fill="currentColor" fill-opacity="1"><g transform="translate(10.251406, 251.334513)"><g><path d="M 28.371094 -53.664062 C 28.371094 -53.664062 29.699219 -54.027344 32.351562 -54.753906 C 35.003906 -55.480469 38.472656 -56.445312 42.75 -57.644531 C 47.03125 -58.839844 51.628906 -60.148438 56.550781 -61.558594 C 61.472656 -62.972656 66.265625 -64.339844 70.929688 -65.667969 C 75.59375 -66.992188 79.597656 -68.128906 82.933594 -69.070312 L 78.570312 -65.859375 C 80.109375 -69.625 81.414062 -74.289062 82.484375 -79.851562 C 83.554688 -85.417969 84.132812 -91.75 84.21875 -98.855469 C 84.304688 -103.902344 83.789062 -107.820312 82.679688 -110.601562 C 81.566406 -113.382812 79.851562 -114.773438 77.542969 -114.773438 C 75.144531 -114.773438 72.75 -113.660156 70.351562 -111.433594 C 67.957031 -109.210938 65.6875 -105.9375 63.550781 -101.613281 C 61.410156 -97.292969 59.484375 -92.027344 57.773438 -85.824219 C 56.058594 -79.617188 54.691406 -72.535156 53.664062 -64.574219 C 51.953125 -51.308594 53.171875 -41.019531 57.324219 -33.699219 C 61.472656 -26.382812 68.984375 -22.722656 79.851562 -22.722656 C 84.21875 -22.722656 88.371094 -23.578125 92.304688 -25.292969 C 96.242188 -27.003906 99.945312 -29.613281 103.410156 -33.121094 C 106.878906 -36.632812 110.109375 -41.039062 113.105469 -46.347656 C 113.53125 -46.945312 113.917969 -47.351562 114.257812 -47.566406 C 114.601562 -47.78125 114.945312 -47.800781 115.285156 -47.628906 C 115.714844 -47.542969 115.972656 -47.246094 116.058594 -46.730469 C 116.140625 -46.21875 116.015625 -45.617188 115.671875 -44.933594 C 111.050781 -34.664062 105.464844 -25.996094 98.917969 -18.9375 C 92.371094 -11.875 84.859375 -6.527344 76.386719 -2.886719 C 67.914062 0.75 58.5 2.566406 48.144531 2.566406 C 38.214844 2.566406 29.785156 0.535156 22.851562 -3.53125 C 15.917969 -7.597656 10.890625 -13.585938 7.765625 -21.503906 C 4.644531 -29.421875 3.765625 -39.113281 5.136719 -50.582031 C 6.332031 -60.082031 8.945312 -68.984375 12.964844 -77.285156 C 16.988281 -85.585938 22.210938 -92.839844 28.628906 -99.046875 C 35.046875 -105.25 42.472656 -110.109375 50.902344 -113.617188 C 59.332031 -117.125 68.511719 -118.882812 78.441406 -118.882812 C 87.941406 -118.882812 95.6875 -117.234375 101.679688 -113.9375 C 107.667969 -110.644531 112.035156 -106.34375 114.773438 -101.035156 C 117.511719 -95.730469 118.710938 -90.039062 118.367188 -83.960938 C 118.28125 -82.847656 118.476562 -81.90625 118.945312 -81.136719 C 119.417969 -80.367188 120.464844 -79.8125 122.089844 -79.46875 C 122.777344 -79.382812 123.203125 -79.234375 123.375 -79.019531 C 123.546875 -78.804688 123.632812 -78.570312 123.632812 -78.3125 C 123.632812 -78.140625 123.546875 -77.925781 123.375 -77.671875 C 123.203125 -77.414062 122.777344 -77.199219 122.089844 -77.027344 C 120.378906 -76.601562 116.957031 -75.679688 111.820312 -74.269531 C 106.683594 -72.855469 100.628906 -71.144531 93.65625 -69.132812 C 86.679688 -67.121094 79.46875 -65.066406 72.023438 -62.972656 C 64.574219 -60.875 57.644531 -58.90625 51.222656 -57.066406 C 44.804688 -55.226562 39.605469 -53.726562 35.625 -52.570312 C 31.644531 -51.417969 29.65625 -50.839844 29.65625 -50.839844 Z M 28.371094 -53.664062 "/></g></g></g></g></g></svg>