<svg xmlns="http://www.w3.org/2000/svg" xmlns:xlink="http://www.w3.org/1999/xlink" width="500" zoomAndPan="magnify" viewBox="0 0 375 374.999991" height="500" preserveAspectRatio="xMidYMid meet" version="1.0"><defs><g/><clipPath id="3559df62f5"><path d="M 0 0.125 L 375 0.125 L 375 375 L 0 375 Z M 0 0.125 " clip-rule="nonzero"/></clipPath><clipPath id="ad04efdefe"><path d="M 47.25 0.125 L 327.75 0.125 C 340.28125 0.125 352.300781 5.105469 361.160156 13.964844 C 370.023438 22.828125 375 34.84375 375 47.375 L 375 327.75 C 375 353.84375 353.84375 375 327.75 375 L 47.25 375 C 34.71875 375 22.699219 370.023438 13.839844 361.160156 C 4.976562 352.300781 0 340.28125 0 327.75 L 0 47.375 C 0 21.28125 21.15625 0.125 47.25 0.125 Z M 47.25 0.125 " clip-rule="nonzero"/></clipPath><clipPath id="3affded532"><path d="M 0 0.125 L 375 0.125 L 375 375 L 0 375 Z M 0 0.125 " clip-rule="nonzero"/></clipPath><clipPath id="0c1cd50286"><path d="M 47.25 0.125 L 327.75 0.125 C 340.28125 0.125 352.300781 5.105469 361.160156 13.964844 C 370.023438 22.828125 375 34.84375 375 47.375 L 375 327.75 C 375 353.84375 353.84375 375 327.75 375 L 47.25 375 C 34.71875 375 22.699219 370.023438 13.839844 361.160156 C 4.976562 352.300781 0 340.28125 0 327.75 L 0 47.375 C 0 21.28125 21.15625 0.125 47.25 0.125 Z M 47.25 0.125 " clip-rule="nonzero"/></clipPath><clipPath id="db01313787"><rect x="0" width="375" y="0" height="375"/></clipPath></defs><rect x="-37.5" width="450" fill="#ffffff" y="-37.499999" height="449.999989" fill-opacity="1"/><rect x="-37.5" width="450" fill="#ffffff" y="-37.499999" height="449.999989" fill-opacity="1"/><g clip-path="url(#3559df62f5)"><g clip-path="url(#ad04efdefe)"><g transform="matrix(1, 0, 0, 1, 0, 0)"><g clip-path="url(#db01313787)"><g clip-path="url(#3affded532)"><g clip-path="url(#0c1cd50286)"><path fill="#bc1723" d="M 0 0.125 L 374.875 0.125 L 374.875 375 L 0 375 Z M 0 0.125 " fill-opacity="1" fill-rule="nonzero"/></g></g></g></g></g></g><g fill="#ffffff" fill-opacity="1"><g transform="translate(48.791572, 259.362845)"><g><path d="M 171.1875 -134.515625 L 171.1875 0 L 129.203125 0 L 129.203125 -67.0625 L 108.484375 0 L 72.390625 0 L 51.6875 -67.0625 L 51.6875 0 L 9.5 0 L 9.5 -134.515625 L 61.1875 -134.515625 L 90.8125 -53.765625 L 119.703125 -134.515625 Z M 171.1875 -134.515625 "/></g></g></g><g fill="#ffffff" fill-opacity="1"><g transform="translate(220.54783, 259.362845)"><g><path d="M 51.6875 -100.890625 L 51.6875 -84.359375 L 93.484375 -84.359375 L 93.484375 -52.625 L 51.6875 -52.625 L 51.6875 -33.625 L 99.1875 -33.625 L 99.1875 0 L 9.5 0 L 9.5 -134.515625 L 99.1875 -134.515625 L 99.1875 -100.890625 Z M 51.6875 -100.890625 "/></g></g></g></svg>