<svg xmlns="http://www.w3.org/2000/svg" xmlns:xlink="http://www.w3.org/1999/xlink" width="500" zoomAndPan="magnify" viewBox="0 0 375 374.999991" height="500" preserveAspectRatio="xMidYMid meet" version="1.0"><defs><g/><clipPath id="f86f39af35"><path d="M 0 0.125 L 375 0.125 L 375 375 L 0 375 Z M 0 0.125 " clip-rule="nonzero"/></clipPath><clipPath id="eb734d10fb"><path d="M 47.25 0.125 L 327.75 0.125 C 340.28125 0.125 352.300781 5.105469 361.160156 13.964844 C 370.023438 22.828125 375 34.84375 375 47.375 L 375 327.75 C 375 353.84375 353.84375 375 327.75 375 L 47.25 375 C 34.71875 375 22.699219 370.023438 13.839844 361.160156 C 4.976562 352.300781 0 340.28125 0 327.75 L 0 47.375 C 0 21.28125 21.15625 0.125 47.25 0.125 Z M 47.25 0.125 " clip-rule="nonzero"/></clipPath><clipPath id="7f2c2e7297"><path d="M 0 0.125 L 375 0.125 L 375 375 L 0 375 Z M 0 0.125 " clip-rule="nonzero"/></clipPath><clipPath id="03a3263722"><path d="M 47.25 0.125 L 327.75 0.125 C 340.28125 0.125 352.300781 5.105469 361.160156 13.964844 C 370.023438 22.828125 375 34.84375 375 47.375 L 375 327.75 C 375 353.84375 353.84375 375 327.75 375 L 47.25 375 C 34.71875 375 22.699219 370.023438 13.839844 361.160156 C 4.976562 352.300781 0 340.28125 0 327.75 L 0 47.375 C 0 21.28125 21.15625 0.125 47.25 0.125 Z M 47.25 0.125 " clip-rule="nonzero"/></clipPath><clipPath id="ef57f3afb2"><rect x="0" width="375" y="0" height="375"/></clipPath></defs><rect x="-37.5" width="450" fill="#ffffff" y="-37.499999" height="449.999989" fill-opacity="1"/><rect x="-37.5" width="450" fill="#ffffff" y="-37.499999" height="449.999989" fill-opacity="1"/><g clip-path="url(#f86f39af35)"><g clip-path="url(#eb734d10fb)"><g transform="matrix(1, 0, 0, 1, 0, 0)"><g clip-path="url(#ef57f3afb2)"><g clip-path="url(#7f2c2e7297)"><g clip-path="url(#03a3263722)"><path fill="#bc1723" d="M 0 0.125 L 374.875 0.125 L 374.875 375 L 0 375 Z M 0 0.125 " fill-opacity="1" fill-rule="nonzero"/></g></g></g></g></g></g><g fill="#ffffff" fill-opacity="1"><g transform="translate(55.66749, 245.688317)"><g><path d="M 151.375 -118.9375 L 151.375 0 L 114.234375 0 L 114.234375 -59.296875 L 95.921875 0 L 64.015625 0 L 45.703125 -59.296875 L 45.703125 0 L 8.40625 0 L 8.40625 -118.9375 L 54.09375 -118.9375 L 80.296875 -47.546875 L 105.84375 -118.9375 Z M 151.375 -118.9375 "/></g></g></g><g fill="#d9d9d9" fill-opacity="1"><g transform="translate(187.683595, 245.688317)"><g><path d="M 100.125 -48.21875 C 100.125 -45.644531 99.957031 -43.179688 99.625 -40.828125 L 39.640625 -40.828125 C 40.203125 -32.648438 43.617188 -28.5625 49.890625 -28.5625 C 53.921875 -28.5625 56.832031 -30.410156 58.625 -34.109375 L 98.109375 -34.109375 C 96.765625 -27.390625 93.9375 -21.367188 89.625 -16.046875 C 85.3125 -10.722656 79.878906 -6.519531 73.328125 -3.4375 C 66.773438 -0.363281 59.582031 1.171875 51.75 1.171875 C 42.332031 1.171875 33.957031 -0.785156 26.625 -4.703125 C 19.289062 -8.617188 13.578125 -14.242188 9.484375 -21.578125 C 5.398438 -28.921875 3.359375 -37.519531 3.359375 -47.375 C 3.359375 -57.226562 5.398438 -65.820312 9.484375 -73.15625 C 13.578125 -80.5 19.289062 -86.128906 26.625 -90.046875 C 33.957031 -93.960938 42.332031 -95.921875 51.75 -95.921875 C 61.15625 -95.921875 69.523438 -93.988281 76.859375 -90.125 C 84.191406 -86.269531 89.898438 -80.753906 93.984375 -73.578125 C 98.078125 -66.410156 100.125 -57.957031 100.125 -48.21875 Z M 62.328125 -57.125 C 62.328125 -60.257812 61.316406 -62.640625 59.296875 -64.265625 C 57.285156 -65.890625 54.769531 -66.703125 51.75 -66.703125 C 45.132812 -66.703125 41.269531 -63.507812 40.15625 -57.125 Z M 62.328125 -57.125 "/></g></g></g><g fill="#d9d9d9" fill-opacity="1"><g transform="translate(169.855658, 274.485788)"><g><path d="M 8.53125 -16.671875 L 8.53125 -13.9375 L 15.4375 -13.9375 L 15.4375 -8.6875 L 8.53125 -8.6875 L 8.53125 -5.5625 L 16.390625 -5.5625 L 16.390625 0 L 1.5625 0 L 1.5625 -22.21875 L 16.390625 -22.21875 L 16.390625 -16.671875 Z M 8.53125 -16.671875 "/></g></g></g><g fill="#d9d9d9" fill-opacity="1"><g transform="translate(185.835225, 274.485788)"><g><path d="M 23.953125 -22.21875 L 16.484375 0 L 7.46875 0 L 0 -22.21875 L 7.40625 -22.21875 L 11.984375 -6.9375 L 16.546875 -22.21875 Z M 23.953125 -22.21875 "/></g></g></g><g fill="#d9d9d9" fill-opacity="1"><g transform="translate(208.313468, 274.485788)"><g><path d="M 8.53125 -16.671875 L 8.53125 -13.9375 L 15.4375 -13.9375 L 15.4375 -8.6875 L 8.53125 -8.6875 L 8.53125 -5.5625 L 16.390625 -5.5625 L 16.390625 0 L 1.5625 0 L 1.5625 -22.21875 L 16.390625 -22.21875 L 16.390625 -16.671875 Z M 8.53125 -16.671875 "/></g></g></g><g fill="#d9d9d9" fill-opacity="1"><g transform="translate(224.293035, 274.485788)"><g><path d="M 22.890625 0 L 15.921875 0 L 8.53125 -11.171875 L 8.53125 0 L 1.5625 0 L 1.5625 -22.21875 L 8.53125 -22.21875 L 15.921875 -10.859375 L 15.921875 -22.21875 L 22.890625 -22.21875 Z M 22.890625 0 "/></g></g></g><g fill="#d9d9d9" fill-opacity="1"><g transform="translate(247.273583, 274.485788)"><g><path d="M 19.015625 -22.21875 L 19.015625 -16.703125 L 13.125 -16.703125 L 13.125 0 L 6.15625 0 L 6.15625 -16.703125 L 0.3125 -16.703125 L 0.3125 -22.21875 Z M 19.015625 -22.21875 "/></g></g></g><g fill="#d9d9d9" fill-opacity="1"><g transform="translate(265.136824, 274.485788)"><g><path d="M 10.265625 0.21875 C 7.609375 0.21875 5.414062 -0.398438 3.6875 -1.640625 C 1.957031 -2.890625 1.019531 -4.71875 0.875 -7.125 L 8.28125 -7.125 C 8.382812 -5.84375 8.953125 -5.203125 9.984375 -5.203125 C 10.359375 -5.203125 10.675781 -5.289062 10.9375 -5.46875 C 11.195312 -5.65625 11.328125 -5.9375 11.328125 -6.3125 C 11.328125 -6.832031 11.046875 -7.253906 10.484375 -7.578125 C 9.921875 -7.898438 9.039062 -8.269531 7.84375 -8.6875 C 6.425781 -9.195312 5.25 -9.691406 4.3125 -10.171875 C 3.382812 -10.648438 2.582031 -11.347656 1.90625 -12.265625 C 1.238281 -13.191406 0.914062 -14.378906 0.9375 -15.828125 C 0.9375 -17.265625 1.304688 -18.488281 2.046875 -19.5 C 2.796875 -20.519531 3.8125 -21.289062 5.09375 -21.8125 C 6.382812 -22.332031 7.835938 -22.59375 9.453125 -22.59375 C 12.171875 -22.59375 14.328125 -21.960938 15.921875 -20.703125 C 17.523438 -19.453125 18.367188 -17.6875 18.453125 -15.40625 L 10.953125 -15.40625 C 10.929688 -16.039062 10.773438 -16.492188 10.484375 -16.765625 C 10.191406 -17.035156 9.835938 -17.171875 9.421875 -17.171875 C 9.128906 -17.171875 8.882812 -17.070312 8.6875 -16.875 C 8.5 -16.675781 8.40625 -16.398438 8.40625 -16.046875 C 8.40625 -15.535156 8.679688 -15.117188 9.234375 -14.796875 C 9.796875 -14.472656 10.679688 -14.082031 11.890625 -13.625 C 13.296875 -13.101562 14.453125 -12.597656 15.359375 -12.109375 C 16.273438 -11.628906 17.066406 -10.960938 17.734375 -10.109375 C 18.398438 -9.253906 18.734375 -8.175781 18.734375 -6.875 C 18.734375 -5.507812 18.398438 -4.285156 17.734375 -3.203125 C 17.066406 -2.128906 16.09375 -1.289062 14.8125 -0.6875 C 13.539062 -0.0820312 12.023438 0.21875 10.265625 0.21875 Z M 10.265625 0.21875 "/></g></g></g></svg>