<svg xmlns="http://www.w3.org/2000/svg" xmlns:xlink="http://www.w3.org/1999/xlink" width="500" zoomAndPan="magnify" viewBox="0 0 375 374.999991" height="500" preserveAspectRatio="xMidYMid meet" version="1.0"><defs><g/><clipPath id="61c859919b"><path d="M 0 0.125 L 375 0.125 L 375 375 L 0 375 Z M 0 0.125 " clip-rule="nonzero"/></clipPath><clipPath id="cecc0fabd6"><path d="M 47.25 0.125 L 327.75 0.125 C 340.28125 0.125 352.300781 5.105469 361.160156 13.964844 C 370.023438 22.828125 375 34.84375 375 47.375 L 375 327.75 C 375 353.84375 353.84375 375 327.75 375 L 47.25 375 C 34.71875 375 22.699219 370.023438 13.839844 361.160156 C 4.976562 352.300781 0 340.28125 0 327.75 L 0 47.375 C 0 21.28125 21.15625 0.125 47.25 0.125 Z M 47.25 0.125 " clip-rule="nonzero"/></clipPath><clipPath id="d080ec20c2"><path d="M 0 0.125 L 375 0.125 L 375 375 L 0 375 Z M 0 0.125 " clip-rule="nonzero"/></clipPath><clipPath id="e2dc2d4f49"><path d="M 47.25 0.125 L 327.75 0.125 C 340.28125 0.125 352.300781 5.105469 361.160156 13.964844 C 370.023438 22.828125 375 34.84375 375 47.375 L 375 327.75 C 375 353.84375 353.84375 375 327.75 375 L 47.25 375 C 34.71875 375 22.699219 370.023438 13.839844 361.160156 C 4.976562 352.300781 0 340.28125 0 327.75 L 0 47.375 C 0 21.28125 21.15625 0.125 47.25 0.125 Z M 47.25 0.125 " clip-rule="nonzero"/></clipPath><clipPath id="6f3a4b0042"><rect x="0" width="375" y="0" height="375"/></clipPath><clipPath id="e28651910a"><rect x="0" width="194" y="0" height="299"/></clipPath><clipPath id="2eec55e5e0"><rect x="0" width="130" y="0" height="299"/></clipPath></defs><rect x="-37.5" width="450" fill="#ffffff" y="-37.499999" height="449.999989" fill-opacity="1"/><rect x="-37.5" width="450" fill="#ffffff" y="-37.499999" height="449.999989" fill-opacity="1"/><g clip-path="url(#61c859919b)"><g clip-path="url(#cecc0fabd6)"><g transform="matrix(1, 0, 0, 1, 0, 0)"><g clip-path="url(#6f3a4b0042)"><g clip-path="url(#d080ec20c2)"><g clip-path="url(#e2dc2d4f49)"><path fill="#bc1723" d="M 0 0.125 L 374.875 0.125 L 374.875 375 L 0 375 Z M 0 0.125 " fill-opacity="1" fill-rule="nonzero"/></g></g></g></g></g></g><g transform="matrix(1, 0, 0, 1, 35, 38)"><g clip-path="url(#e28651910a)"><g fill="#ffffff" fill-opacity="1"><g transform="translate(0.611279, 223.275223)"><g><path d="M 192.125 -150.96875 L 192.125 0 L 145 0 L 145 -75.265625 L 121.75 0 L 81.25 0 L 58 -75.265625 L 58 0 L 10.65625 0 L 10.65625 -150.96875 L 68.65625 -150.96875 L 101.921875 -60.34375 L 134.34375 -150.96875 Z M 192.125 -150.96875 "/></g></g></g></g></g><g transform="matrix(1, 0, 0, 1, 202, 38)"><g clip-path="url(#2eec55e5e0)"><g fill="#d9d9d9" fill-opacity="1"><g transform="translate(1.172942, 223.275223)"><g><path d="M 127.09375 -61.203125 C 127.09375 -57.929688 126.878906 -54.800781 126.453125 -51.8125 L 50.328125 -51.8125 C 51.035156 -41.4375 55.367188 -36.25 63.328125 -36.25 C 68.441406 -36.25 72.140625 -38.59375 74.421875 -43.28125 L 124.53125 -43.28125 C 122.820312 -34.757812 119.226562 -27.117188 113.75 -20.359375 C 108.28125 -13.609375 101.390625 -8.273438 93.078125 -4.359375 C 84.765625 -0.453125 75.628906 1.5 65.671875 1.5 C 53.734375 1.5 43.109375 -0.988281 33.796875 -5.96875 C 24.484375 -10.945312 17.234375 -18.09375 12.046875 -27.40625 C 6.859375 -36.71875 4.265625 -47.625 4.265625 -60.125 C 4.265625 -72.632812 6.859375 -83.546875 12.046875 -92.859375 C 17.234375 -102.171875 24.484375 -109.3125 33.796875 -114.28125 C 43.109375 -119.257812 53.734375 -121.75 65.671875 -121.75 C 77.617188 -121.75 88.242188 -119.296875 97.546875 -114.390625 C 106.859375 -109.492188 114.109375 -102.492188 119.296875 -93.390625 C 124.492188 -84.296875 127.09375 -73.566406 127.09375 -61.203125 Z M 79.109375 -72.5 C 79.109375 -76.476562 77.828125 -79.5 75.265625 -81.5625 C 72.710938 -83.625 69.515625 -84.65625 65.671875 -84.65625 C 57.285156 -84.65625 52.382812 -80.601562 50.96875 -72.5 Z M 79.109375 -72.5 "/></g></g></g></g></g></svg>